<?xml version="1.0" encoding="UTF-8" standalone="no"?><!DOCTYPE svg PUBLIC "-//W3C//DTD SVG 1.1//EN" "http://www.w3.org/Graphics/SVG/1.1/DTD/svg11.dtd"><svg width="100%" height="100%" viewBox="0 0 1191 1684" version="1.1" xmlns="http://www.w3.org/2000/svg" xmlns:xlink="http://www.w3.org/1999/xlink" xml:space="preserve" xmlns:serif="http://www.serif.com/" style="fill-rule:evenodd;clip-rule:evenodd;stroke-linejoin:round;stroke-miterlimit:2;"><g><path d="M653.584,517.251c13.841,-15.585 12.019,-16.89 26.088,-32.028c1.629,-1.752 16.583,-17.827 20.184,-21.883c133.149,-149.864 132.019,-150.565 143.644,-163.53c87.937,-98.134 90.135,-95.996 97.126,-102.041c12.203,-10.547 27.306,-1.682 28.436,8.568c0.657,5.94 -27.753,58.624 -37.967,75.365c-49.741,81.603 -47.227,82.873 -93.394,166.64c-41.883,75.996 -44.906,73.946 -74.323,123.241c-15.348,25.703 -40.832,2.497 -28.988,-13.088c32.089,-42.243 68.778,-106.763 82.383,-133.552c64.441,-126.894 71.003,-122.952 76.215,-134.139c8.909,-19.124 -10.81,6.272 -11.467,7.122c-59.86,77.126 -171.572,190.915 -212.281,246.859c-9.409,12.922 -19.194,19.176 -3.592,23.197c68.716,17.722 193.35,68.033 244.029,95.4c91.029,49.146 95.068,42.391 100.525,49.514c14.288,18.651 -7.902,214.191 -107.718,199.623c-33.692,-4.915 -62.689,-50.258 -69.137,-62.041c-6.351,-11.616 -9.233,-7.998 -22.33,-10.574c-68.953,-13.544 -99.711,-31.774 -103.11,-32.764c-16.785,-4.871 -11.143,287.13 1.314,325.579c6.159,19.001 -5.151,28.699 -17.766,26.018c-13.342,-2.838 -13.438,-6.894 -17.985,-73.316c-13.736,-201.033 -1.314,-276.188 2.602,-299.85c3.268,-19.781 24.669,-22.637 33.894,-11.564c6.053,7.254 6.395,6.702 14.849,10.486c93,41.577 130.556,17.95 132.369,47.902c0.823,13.728 30.442,45.116 40.377,49.75c38.143,17.801 84.126,-50.959 85.536,-138.913c0.298,-19.01 -10.293,-14.805 -54.393,-38.213c-20.788,-11.029 -155.549,-82.558 -272.474,-111.02c-6.702,-1.629 -6.141,5.607 -14.025,8.13c-21.997,7.043 -23.04,-19.579 -23.697,-20.193c-11.502,-10.609 -48.918,-16.846 -53.351,-17.582c-19.106,-3.18 -14.262,-48.909 -20.832,-81.393c-9.75,-48.226 -7.359,-52.028 -11.275,-50.652c-1.226,0.429 -0.464,7.963 -4.38,25.212c-9.742,42.926 -8.252,42.996 -14.63,86.561c-9.908,67.726 -9.864,67.726 -11.126,69.365c-6.623,8.524 -7.35,7.902 -13.71,19.176c-6.693,11.862 8.936,10.766 6.456,24.056c-3.145,16.846 -19.676,2.181 -32.799,26.167c-1.279,2.348 -9.505,17.389 -16.198,29.321c-15.129,26.964 -19.211,27.42 -14.034,38.616c8.086,17.468 -14.358,22.146 -22.19,25.563c-5.598,2.444 -39.063,65.878 -39.676,67.753c-1.375,4.249 8.103,4.512 11.888,11.371c14.306,25.948 -25.791,19.956 -33.07,30.898c-17.757,26.719 -63.583,118.064 -68.813,128.48c-29.084,57.976 -32.212,56.128 -34.656,61.191c-14.612,30.337 -38.458,4.941 -25.028,-15.944c10.364,-16.128 12.466,-14.7 37.521,-65.712c46.535,-94.743 65.125,-107.017 48.716,-102.575c-32.352,8.769 -97.004,23.776 -105.457,25.738c-2.129,0.499 -16.636,3.855 -25.16,-10.688c-4.731,-8.068 50.95,-23.32 55.646,-24.608c90.968,-24.897 97.591,-20.578 103.556,-33.246c19.483,-41.375 29.058,-52.58 28.857,-54.165c-0.832,-6.448 -101.41,41.331 -132.737,51.152c-20.657,6.465 -31.634,-15.304 -2.488,-28.305c111.388,-49.671 141.515,-56.627 156.784,-63.679c6.018,-2.795 40.604,-66.062 40.49,-67.061c-0.71,-6.088 -94.919,32.177 -102.785,36.101c-50.793,25.423 -51.52,23.46 -103.46,46.299c-15.629,6.877 -29.391,-19.019 -4.739,-28.173c93.894,-34.91 89.487,-45.904 227.428,-91.292c8.41,-2.768 8.349,-11.45 19.273,-30.504c28.182,-49.189 11.643,-58.099 37.381,-166.675c8.401,-35.427 11.581,-101.988 11.537,-103.285c-0.07,-2.12 -0.788,-23.53 16.067,-21.2c22.102,3.031 16.338,12.492 19.676,25.677c26.886,106.246 24.301,140.998 29.575,124.494c4.871,-15.199 28.427,-68.848 31.029,-74.779c1.638,-3.723 23.679,-53.911 43.635,-25.843c3.986,5.607 -2.584,136.057 -1.095,137.809c0.788,0.92 2.462,0.745 3.25,1.673m-40.867,-50.258c4.494,-10.845 4.555,-10.618 8.13,-21.761c1.183,-3.697 4.871,-2.628 4.652,0.385c-5.799,79.597 0.631,91.52 -3.162,103.565c-0.955,3.014 -2.803,2.996 -38.073,-10.793c-6.605,-2.576 0.561,-4.748 28.454,-71.397" style="fill:#010101;"/><path d="M673.722,684.658c-3.46,24.389 -32.492,16.522 -32.159,-0.035c0.683,-33.377 -7.832,-54.218 19.518,-51.266c15.278,1.656 9.812,11.388 12.641,51.301" style="fill:#010101;"/></g></svg>